<svg xmlns="http://www.w3.org/2000/svg">
	<defs>
		<symbol id="github" viewBox="0 0 32 32">
			<path fill-rule="evenodd" d="M 16 4 C 9.371094 4 4 9.371094 4 16 C 4 21.300781 7.4375 25.800781 12.207031 27.386719 C 12.808594 27.496094 13.027344 27.128906 13.027344 26.808594 C 13.027344 26.523438 13.015625 25.769531 13.011719 24.769531 C 9.671875 25.492188 8.96875 23.160156 8.96875 23.160156 C 8.421875 21.773438 7.636719 21.402344 7.636719 21.402344 C 6.546875 20.660156 7.71875 20.675781 7.71875 20.675781 C 8.921875 20.761719 9.554688 21.910156 9.554688 21.910156 C 10.625 23.746094 12.363281 23.214844 13.046875 22.910156 C 13.15625 22.132813 13.46875 21.605469 13.808594 21.304688 C 11.144531 21.003906 8.34375 19.972656 8.34375 15.375 C 8.34375 14.0625 8.8125 12.992188 9.578125 12.152344 C 9.457031 11.851563 9.042969 10.628906 9.695313 8.976563 C 9.695313 8.976563 10.703125 8.65625 12.996094 10.207031 C 13.953125 9.941406 14.980469 9.808594 16 9.804688 C 17.019531 9.808594 18.046875 9.941406 19.003906 10.207031 C 21.296875 8.65625 22.300781 8.976563 22.300781 8.976563 C 22.957031 10.628906 22.546875 11.851563 22.421875 12.152344 C 23.191406 12.992188 23.652344 14.0625 23.652344 15.375 C 23.652344 19.984375 20.847656 20.996094 18.175781 21.296875 C 18.605469 21.664063 18.988281 22.398438 18.988281 23.515625 C 18.988281 25.121094 18.976563 26.414063 18.976563 26.808594 C 18.976563 27.128906 19.191406 27.503906 19.800781 27.386719 C 24.566406 25.796875 28 21.300781 28 16 C 28 9.371094 22.628906 4 16 4 Z" />
		</symbol>
		<symbol id="google" viewBox="0 0 32 32">
			<path d="M 16.003906 14.0625 L 16.003906 18.265625 L 21.992188 18.265625 C 21.210938 20.8125 19.082031 22.636719 16.003906 22.636719 C 12.339844 22.636719 9.367188 19.664063 9.367188 16 C 9.367188 12.335938 12.335938 9.363281 16.003906 9.363281 C 17.652344 9.363281 19.15625 9.96875 20.316406 10.964844 L 23.410156 7.867188 C 21.457031 6.085938 18.855469 5 16.003906 5 C 9.925781 5 5 9.925781 5 16 C 5 22.074219 9.925781 27 16.003906 27 C 25.238281 27 27.277344 18.363281 26.371094 14.078125 Z" />
		</symbol>
		<symbol id="microsoftlive" viewBox="0 0 50 50">
			<path d="M 4 4 L 4 5 L 4 24 L 24 24 L 24 4 L 4 4 z M 26 4 L 26 5 L 26 24 L 46 24 L 46 4 L 26 4 z M 6 6 L 22 6 L 22 22 L 6 22 L 6 6 z M 28 6 L 44 6 L 44 22 L 28 22 L 28 6 z M 4 26 L 4 27 L 4 46 L 24 46 L 24 26 L 4 26 z M 26 26 L 26 27 L 26 46 L 46 46 L 46 26 L 26 26 z M 6 28 L 22 28 L 22 44 L 6 44 L 6 28 z M 28 28 L 44 28 L 44 44 L 28 44 L 28 28 z" />
		</symbol>
		<symbol id="yandex" viewBox="0 0 32 32">
			<path d="M19.663,4H16.17C12.738,4,10,6.72,10,12c0,3.168,1.237,5.504,3.749,6.656l-4.688,8.832 C8.908,27.777,9.061,28,9.306,28h2.175c0.184,0,0.307-0.064,0.368-0.223L16.25,19h1.25l-0.008,8.777 c0,0.096,0.092,0.223,0.214,0.223h2.049C19.939,28,20,27.904,20,27.745V4.32C20,4.096,19.877,4,19.663,4z M17.5,17H16 c-1.5,0-3.5-1.16-3.5-5c0-4.001,1.631-6,3.5-6h1.5V17z" />
		</symbol>
		<symbol id="vk" viewBox="0 0 32 32">
			<path d="M 9.082031 5 C 6.839844 5 5 6.839844 5 9.082031 L 5 22.917969 C 5 25.160156 6.839844 27 9.082031 27 L 22.917969 27 C 25.160156 27 27 25.160156 27 22.917969 L 27 9.082031 C 27 6.839844 25.160156 5 22.917969 5 Z M 9.082031 7 L 22.917969 7 C 24.078125 7 25 7.921875 25 9.082031 L 25 22.917969 C 25 24.078125 24.078125 25 22.917969 25 L 9.082031 25 C 7.921875 25 7 24.078125 7 22.917969 L 7 9.082031 C 7 7.921875 7.921875 7 9.082031 7 Z M 15.71875 12.230469 C 14.984375 12.222656 14.359375 12.230469 14.007813 12.402344 C 13.773438 12.515625 13.59375 12.773438 13.703125 12.785156 C 13.839844 12.804688 14.148438 12.871094 14.3125 13.09375 C 14.523438 13.378906 14.515625 14.023438 14.515625 14.023438 C 14.515625 14.023438 14.632813 15.796875 14.230469 16.019531 C 13.953125 16.171875 13.574219 15.863281 12.753906 14.453125 C 12.335938 13.726563 12.019531 12.925781 12.019531 12.925781 C 12.019531 12.925781 11.960938 12.777344 11.851563 12.699219 C 11.71875 12.601563 11.535156 12.570313 11.535156 12.570313 L 9.578125 12.582031 C 9.578125 12.582031 9.285156 12.59375 9.179688 12.71875 C 9.082031 12.835938 9.171875 13.066406 9.171875 13.066406 C 9.171875 13.066406 10.703125 16.648438 12.4375 18.453125 C 14.027344 20.109375 15.832031 20 15.832031 20 L 16.652344 20 C 16.652344 20 16.898438 19.972656 17.023438 19.839844 C 17.140625 19.714844 17.136719 19.480469 17.136719 19.480469 C 17.136719 19.480469 17.121094 18.382813 17.628906 18.21875 C 18.132813 18.0625 18.773438 19.28125 19.457031 19.75 C 19.976563 20.105469 20.371094 20.027344 20.371094 20.027344 L 22.199219 20 C 22.199219 20 23.152344 19.941406 22.699219 19.1875 C 22.664063 19.128906 22.4375 18.632813 21.34375 17.617188 C 20.195313 16.554688 20.347656 16.726563 21.730469 14.886719 C 22.570313 13.765625 22.90625 13.082031 22.800781 12.785156 C 22.699219 12.507813 22.082031 12.582031 22.082031 12.582031 L 20.023438 12.59375 C 20.023438 12.59375 19.871094 12.574219 19.757813 12.640625 C 19.648438 12.707031 19.578125 12.863281 19.578125 12.863281 C 19.578125 12.863281 19.25 13.730469 18.816406 14.46875 C 17.902344 16.023438 17.53125 16.109375 17.382813 16.011719 C 17.035156 15.785156 17.121094 15.105469 17.121094 14.625 C 17.121094 13.113281 17.351563 12.488281 16.675781 12.324219 C 16.453125 12.269531 16.289063 12.234375 15.71875 12.230469 Z" />
		</symbol>
	</defs>
</svg>